# xmcd
#
# Track frame offsets:
#	150
#	11088
#	23457
#	36597
#	49360
#	61063
#	72118
#	84908
#	96535
#	107429
#	118213
#	131122
#	141866
#	154409
#
# Disc length: 2237 seconds
#
# Revision: 1
# Processed by: cddbd v1.5.2PL0 Copyright (c) Steve Scherf et al.
# Submitted via: audiograbber 1.83.01
#
DISCID=c308bb0e
DTITLE=Various Artist - Lifetime Of Country Romance - Gentle On My Mind - Disc 2
DYEAR=2006
DGENRE=Country
TTITLE0=Hank Williams w His Drifting Cowboys - I Can't Help It (If I'm Still In
TTITLE0=Love With You)
TTITLE1=Johnny Cash - I Walk The Line
TTITLE2=Kitty Wells - Makin' Believe
TTITLE3=Patsy Cline featuring The Jordanaires - I Fall To Pieces
TTITLE4=Freddy Fender - Before The Next Teardrop Falls
TTITLE5=Conway Twitty - Hello Darlin'
TTITLE6=The Statler Brothers - I'll Go To My Grave Loving You
TTITLE7=Jerry Lee Lewis - Think About It Darlin'
TTITLE8=George Jones - Tender Years
TTITLE9=Porter Wagoner and Dolly Parton - Just Someone I Used To Know
TTITLE10=Bill Anderson - Still
TTITLE11=Ronnie Milsap - Pure Love
TTITLE12=Donna Fargo - Funny Face
TTITLE13=Bobby Helms - My Special Angel
EXTD=
EXTT0=
EXTT1=
EXTT2=
EXTT3=
EXTT4=
EXTT5=
EXTT6=
EXTT7=
EXTT8=
EXTT9=
EXTT10=
EXTT11=
EXTT12=
EXTT13=
PLAYORDER=
